<svg width="260" height="48" viewBox="0 0 260 48" fill="none" xmlns="http://www.w3.org/2000/svg">
<path d="M246.204 23.6402C250.604 23.6402 253.984 24.6002 256.344 26.5202C258.704 28.4402 259.884 31.1602 259.884 34.6802C259.884 38.3602 258.504 41.2602 255.744 43.3802C253.024 45.5002 249.284 46.5602 244.524 46.5602H225.444V13.7402H238.944V23.6402H246.204ZM243.144 37.4402C244.064 37.4402 244.784 37.2002 245.304 36.7202C245.824 36.2402 246.084 35.4802 246.084 34.4402C246.084 33.4002 245.824 32.6602 245.304 32.2202C244.784 31.7802 244.064 31.5602 243.144 31.5602H238.944V37.4402H243.144Z" fill="#668CFF"/>
<path d="M188.972 35.9402L186.032 38.8802V13.7402H199.532V38.8802L196.532 35.9402H209.192L206.252 38.8802V13.7402H219.692V46.5602H165.752V13.7402H179.252V38.8802L176.312 35.9402H188.972Z" fill="#668CFF"/>
<path d="M144.676 47.16C140.676 47.16 137.176 46.42 134.176 44.94C131.216 43.46 128.916 41.44 127.276 38.88C125.636 36.28 124.816 33.36 124.816 30.12C124.816 26.8 125.616 23.86 127.216 21.3C128.856 18.74 131.076 16.74 133.876 15.3C136.716 13.86 139.896 13.14 143.416 13.14C146.656 13.14 149.636 13.78 152.356 15.06C155.116 16.34 157.316 18.24 158.956 20.76C160.636 23.28 161.476 26.4 161.476 30.12C161.476 30.6 161.456 31.14 161.416 31.74C161.376 32.3 161.336 32.82 161.296 33.3H136.036V26.76H154.096L148.996 28.5C148.996 27.22 148.756 26.14 148.276 25.26C147.836 24.34 147.216 23.64 146.416 23.16C145.616 22.64 144.656 22.38 143.536 22.38C142.416 22.38 141.436 22.64 140.596 23.16C139.796 23.64 139.176 24.34 138.736 25.26C138.296 26.14 138.076 27.22 138.076 28.5V30.54C138.076 31.94 138.356 33.14 138.916 34.14C139.476 35.14 140.276 35.9 141.316 36.42C142.356 36.9 143.616 37.14 145.096 37.14C146.616 37.14 147.856 36.94 148.816 36.54C149.816 36.14 150.856 35.54 151.936 34.74L159.016 41.88C157.416 43.6 155.436 44.92 153.076 45.84C150.756 46.72 147.956 47.16 144.676 47.16ZM149.836 10.62C148.316 10.62 147.036 10.14 145.996 9.18C144.956 8.22 144.436 6.94 144.436 5.34C144.436 3.74 144.956 2.46 145.996 1.5C147.036 0.499999 148.316 0 149.836 0C151.356 0 152.636 0.499999 153.676 1.5C154.716 2.46 155.236 3.74 155.236 5.34C155.236 6.94 154.716 8.22 153.676 9.18C152.636 10.14 151.356 10.62 149.836 10.62ZM136.516 10.62C134.996 10.62 133.716 10.14 132.676 9.18C131.636 8.22 131.116 6.94 131.116 5.34C131.116 3.74 131.636 2.46 132.676 1.5C133.716 0.499999 134.996 0 136.516 0C138.036 0 139.316 0.499999 140.356 1.5C141.396 2.46 141.916 3.74 141.916 5.34C141.916 6.94 141.396 8.22 140.356 9.18C139.316 10.14 138.036 10.62 136.516 10.62Z" fill="#668CFF"/>
<path d="M96.2295 46.5602V13.7402H124.909V24.3002H106.789L109.729 21.4202V46.5602H96.2295Z" fill="#668CFF"/>
<path d="M73.5536 47.1601C69.8336 47.1601 66.5336 46.4401 63.6536 45.0001C60.8136 43.5201 58.5736 41.5001 56.9336 38.9401C55.2936 36.3801 54.4736 33.4401 54.4736 30.1201C54.4736 26.8001 55.2936 23.8601 56.9336 21.3001C58.5736 18.7401 60.8136 16.7401 63.6536 15.3001C66.5336 13.8601 69.8336 13.1401 73.5536 13.1401C77.2736 13.1401 80.5736 13.8601 83.4536 15.3001C86.3336 16.7401 88.5736 18.7401 90.1736 21.3001C91.8136 23.8601 92.6336 26.8001 92.6336 30.1201C92.6336 33.4401 91.8136 36.3801 90.1736 38.9401C88.5736 41.5001 86.3336 43.5201 83.4536 45.0001C80.5736 46.4401 77.2736 47.1601 73.5536 47.1601ZM73.5536 36.6001C74.5536 36.6001 75.4536 36.3601 76.2536 35.8801C77.0536 35.4001 77.6936 34.6801 78.1736 33.7201C78.6536 32.7201 78.8936 31.5201 78.8936 30.1201C78.8936 28.6801 78.6536 27.5001 78.1736 26.5801C77.6936 25.6201 77.0536 24.9001 76.2536 24.4201C75.4536 23.9401 74.5536 23.7001 73.5536 23.7001C72.5536 23.7001 71.6536 23.9401 70.8536 24.4201C70.0536 24.9001 69.4136 25.6201 68.9336 26.5801C68.4536 27.5001 68.2136 28.6801 68.2136 30.1201C68.2136 31.5201 68.4536 32.7201 68.9336 33.7201C69.4136 34.6801 70.0536 35.4001 70.8536 35.8801C71.6536 36.3601 72.5536 36.6001 73.5536 36.6001Z" fill="#668CFF"/>
<path d="M0 46.5601V4.56006H11.64L28.44 31.9801H22.32L38.64 4.56006H50.28L50.4 46.5601H37.5L37.38 24.0001H39.42L28.26 42.7801H22.02L10.38 24.0001H12.9V46.5601H0Z" fill="#668CFF"/>
</svg>
